# xmcd CD database file
#
# Track frame offsets:
#	150
#	13771
#	29378
#	39988
#	54722
#	69908
#	79410
#	94684
#	104818
#	115574
#	128271
#	144120
#	154395
#	165749
#	181747
#	190899
#	201890
#
# Disc length: 2837 seconds
#
# Revision: 0
# Processed by: cddbd v1.5.2PL0 Copyright (c) Steve Scherf et al.
# Submitted via: CDex 1.51
#
DISCID=dc0b1311
DTITLE=Cornell Hurd Band - A Bad Year for Love
DYEAR=2010
DGENRE=Country
TTITLE0=Respect for the Dead
TTITLE1=I Got Wine on My Mind
TTITLE2=White Sands (Home of the Radar Men)
TTITLE3=I Won't Apologize for Loving You
TTITLE4=It's All Down Hill from Here
TTITLE5=Cold Rain
TTITLE6=A Date with Her Memory
TTITLE7=I've Had It
TTITLE8=The Lights in the Distance
TTITLE9=Invitation to the Blues
TTITLE10=A Bad Year for Love
TTITLE11=Thunderbird Highway
TTITLE12=Little Jane Ann
TTITLE13=The Color of Dead Leaves
TTITLE14=My Love Lives in South Austin
TTITLE15=I'm Gonna Drive
TTITLE16=The Cornell Hurd Band - My Very Last Dream
EXTD=YEAR: 2010
EXTT0=
EXTT1=
EXTT2=
EXTT3=
EXTT4=
EXTT5=
EXTT6=
EXTT7=
EXTT8=
EXTT9=
EXTT10=
EXTT11=
EXTT12=
EXTT13=
EXTT14=
EXTT15=
EXTT16=
PLAYORDER=
